<svg xmlns="http://www.w3.org/2000/svg" viewBox="0 0 1200 1200">
  <defs>
    <linearGradient id="g" x1="0" y1="0" x2="1" y2="1"><stop stop-color="#0057ff"/><stop offset="1" stop-color="#ffd500"/></linearGradient>
    <radialGradient id="r" cx="35%" cy="20%" r="70%"><stop stop-color="white" stop-opacity=".22"/><stop offset="1" stop-color="white" stop-opacity="0"/></radialGradient>
    <filter id="glow"><feGaussianBlur stdDeviation="8" result="b"/><feMerge><feMergeNode in="b"/><feMergeNode in="SourceGraphic"/></feMerge></filter>
  </defs>
  <rect width="1200" height="1200" fill="#05050a"/>
  <rect width="1200" height="1200" fill="url(#g)" opacity=".28"/>
  <circle cx="1050" cy="140" r="380" fill="url(#r)"/>
  <circle cx="130" cy="1080" r="360" fill="#0057ff" opacity=".18"/>
  <g opacity=".28" stroke="white" stroke-width="2">
    <path d="M120 370 C320 260 470 480 650 370 S980 250 1100 390" fill="none"/>
    <path d="M90 790 C300 650 470 880 690 720 S1010 620 1140 790" fill="none"/>
  </g>
  <rect x="90" y="90" width="1020" height="1020" rx="70" fill="none" stroke="#0057ff" stroke-width="7" opacity=".9" filter="url(#glow)"/>
  <text x="600" y="250" text-anchor="middle" font-family="Arial Black, Arial" font-size="78" fill="white" letter-spacing="-2">DG TV</text>
  <text x="600" y="315" text-anchor="middle" font-family="Arial" font-size="32" fill="#0057ff" font-weight="700" letter-spacing="5">MUSIC LIVE RADIO</text>
  <text x="600" y="520" text-anchor="middle" font-family="Arial Black, Arial" font-size="86" fill="white">Euro Dance House</text>
  <text x="600" y="610" text-anchor="middle" font-family="Arial" font-size="46" fill="#dbeafe" font-weight="700">Daniele Rizzo DJ</text>
  <text x="600" y="760" text-anchor="middle" font-family="Arial Black, Arial" font-size="132" fill="white">🇪🇺</text>
  <rect x="360" y="890" width="480" height="78" rx="39" fill="#0057ff" opacity=".88"/>
  <text x="600" y="942" text-anchor="middle" font-family="Arial Black, Arial" font-size="35" fill="white" letter-spacing="3">ON DEMAND</text>
</svg>